<svg width="33" height="28" viewBox="0 0 33 28" fill="none" xmlns="http://www.w3.org/2000/svg">
<g clip-path="url(#clip0_102_8)">
<mask id="mask0_102_8" style="mask-type:luminance" maskUnits="userSpaceOnUse" x="0" y="0" width="33" height="28">
<path d="M32.2557 0H0.255737V28H32.2557V0Z" fill="white"/>
</mask>
<g mask="url(#mask0_102_8)">
<path d="M15.2557 16.625C20.5025 16.625 24.7557 12.9034 24.7557 8.3125C24.7557 3.72163 20.5025 0 15.2557 0C10.009 0 5.75574 3.72163 5.75574 8.3125C5.75574 12.9034 10.009 16.625 15.2557 16.625Z" fill="#036C70"/>
<path d="M24.1308 22.75C28.618 22.75 32.2557 19.567 32.2557 15.6407C32.2557 11.7142 28.618 8.53125 24.1308 8.53125C19.6434 8.53125 16.0057 11.7142 16.0057 15.6407C16.0057 19.567 19.6434 22.75 24.1308 22.75Z" fill="#1A9BA1"/>
<path d="M16.2557 28C19.8457 28 22.7557 25.4537 22.7557 22.3125C22.7557 19.1713 19.8457 16.625 16.2557 16.625C12.6659 16.625 9.75574 19.1713 9.75574 22.3125C9.75574 25.4537 12.6659 28 16.2557 28Z" fill="#37C6D0"/>
<path opacity="0.1" d="M16.9228 6.125H6.08873C5.70555 7.3582 5.65227 8.65208 5.93304 9.90622C6.2138 11.1604 6.82107 12.341 7.70769 13.3566C8.59433 14.3721 9.73648 15.1953 11.0455 15.762C12.3545 16.3289 13.7952 16.6242 15.2557 16.625C15.5327 16.625 15.8067 16.6137 16.0777 16.5935L16.0837 16.6267C14.3902 16.666 12.781 17.2822 11.599 18.3442C10.4171 19.4062 9.75566 20.83 9.75574 22.3125C9.75574 22.4595 9.76174 22.6057 9.77473 22.75H16.9228C17.2759 22.749 17.6145 22.626 17.8642 22.4074C18.1138 22.1889 18.2546 21.8926 18.2557 21.5837V7.29138C18.2546 6.98232 18.1138 6.68618 17.8642 6.46765C17.6145 6.24911 17.2759 6.12592 16.9228 6.125Z" fill="black"/>
<path opacity="0.2" d="M15.9227 7H5.87371C5.6579 8.18747 5.73886 9.40176 6.111 10.5592C6.48316 11.7167 7.13764 12.7898 8.02937 13.7046C8.92112 14.6195 10.0289 15.3542 11.2764 15.8584C12.5239 16.3626 13.8815 16.6242 15.2557 16.625C15.5327 16.625 15.8067 16.6137 16.0777 16.5935L16.0837 16.6267C15.1174 16.6498 14.1692 16.861 13.3079 17.2449C12.4466 17.6289 11.6939 18.1761 11.1045 18.8464C10.5151 19.5168 10.1039 20.2937 9.90067 21.1205C9.69745 21.9475 9.70737 22.8036 9.92971 23.6267H15.9227C16.2762 23.6258 16.6149 23.5024 16.8649 23.2835C17.1146 23.0646 17.2551 22.7679 17.2557 22.4587V8.16638C17.2546 7.85732 17.1138 7.56118 16.8641 7.34265C16.6143 7.12411 16.2759 7.00092 15.9227 7Z" fill="black"/>
<path opacity="0.2" d="M15.9227 7H5.87371C5.6579 8.18747 5.73886 9.40176 6.111 10.5592C6.48316 11.7167 7.13764 12.7898 8.02937 13.7046C8.92112 14.6195 10.0289 15.3542 11.2764 15.8584C12.5239 16.3626 13.8815 16.6242 15.2557 16.625C15.5327 16.625 15.8067 16.6137 16.0777 16.5935L16.0837 16.6267C14.4762 16.6639 12.9415 17.2213 11.7762 18.1909C10.611 19.1605 9.89784 20.4737 9.7747 21.8767H15.9227C16.2762 21.8758 16.6149 21.7524 16.8649 21.5335C17.1146 21.3146 17.2551 21.0179 17.2557 20.7087V8.16638C17.2546 7.85732 17.1138 7.56118 16.8641 7.34265C16.6143 7.12411 16.2759 7.00092 15.9227 7Z" fill="black"/>
<path opacity="0.2" d="M14.9227 7H5.87371C5.6579 8.18747 5.73886 9.40176 6.111 10.5592C6.48316 11.7167 7.13764 12.7898 8.02937 13.7046C8.92112 14.6195 10.0289 15.3542 11.2764 15.8584C12.5239 16.3626 13.8815 16.6242 15.2557 16.625C15.5327 16.625 15.8067 16.6137 16.0777 16.5935L16.0837 16.6267C14.4762 16.6639 12.9415 17.2213 11.7762 18.1909C10.611 19.1605 9.89784 20.4737 9.7747 21.8767H14.9227C15.2763 21.8758 15.615 21.7524 15.8648 21.5335C16.1146 21.3146 16.2552 21.0179 16.2557 20.7087V8.16638C16.2547 7.85732 16.1139 7.56118 15.8641 7.34265C15.6143 7.12411 15.2759 7.00092 14.9227 7Z" fill="black"/>
<path d="M14.9227 7H1.58874C0.852542 7 0.255737 7.5222 0.255737 8.16638V19.8337C0.255737 20.4778 0.852542 21 1.58874 21H14.9227C15.6589 21 16.2557 20.4778 16.2557 19.8337V8.16638C16.2557 7.5222 15.6589 7 14.9227 7Z" fill="#038387"/>
<path d="M6.26976 13.9125C5.9195 13.7105 5.6267 13.4412 5.41377 13.125C5.20664 12.7929 5.10316 12.419 5.11376 12.0408C5.09616 11.5305 5.29329 11.0324 5.66777 10.6408C6.06176 10.2481 6.5712 9.95725 7.14076 9.79996C7.79011 9.61295 8.47019 9.52072 9.15376 9.52696C10.0528 9.49809 10.9505 9.60829 11.8058 9.85246V11.4913C11.434 11.2939 11.0291 11.1489 10.6058 11.0617C10.1476 10.9631 9.67755 10.9135 9.20576 10.9138C8.7078 10.8968 8.21267 10.987 7.76376 11.1763C7.59448 11.2405 7.4502 11.3464 7.34862 11.4811C7.24704 11.6158 7.19252 11.7736 7.19177 11.935C7.18984 12.1347 7.27659 12.3273 7.43376 12.4722C7.62094 12.6421 7.8423 12.7803 8.08676 12.88C8.35944 12.9966 8.76744 13.1544 9.31076 13.3533C9.37088 13.3696 9.4294 13.3901 9.48575 13.4146C10.0212 13.5977 10.5377 13.8204 11.0298 14.0805C11.4023 14.2814 11.7149 14.5571 11.9418 14.8845C12.1749 15.255 12.2886 15.6738 12.2708 16.0965C12.2973 16.6215 12.1138 17.1382 11.7518 17.5577C11.3906 17.9437 10.9075 18.2279 10.3628 18.375C9.72304 18.5508 9.05524 18.6358 8.38476 18.627C7.78393 18.6294 7.18401 18.586 6.59176 18.4975C6.0912 18.4279 5.60244 18.3042 5.13676 18.129V16.3965C5.58289 16.6748 6.0815 16.8822 6.60976 17.009C7.13456 17.1521 7.68014 17.2285 8.22977 17.2357C8.73908 17.2641 9.24755 17.1697 9.69976 16.9627C9.85492 16.886 9.98339 16.7738 10.0714 16.6382C10.1595 16.5026 10.2038 16.3486 10.1998 16.1927C10.2005 16.0832 10.1764 15.9748 10.1288 15.8735C10.0813 15.7723 10.0112 15.6803 9.92276 15.603C9.69849 15.4115 9.43926 15.2543 9.15576 15.1375C8.8311 14.994 8.35043 14.8058 7.71376 14.573C7.20848 14.3955 6.72475 14.1742 6.26976 13.9125Z" fill="white"/>
</g>
</g>
<defs>
<clipPath id="clip0_102_8">
<rect width="32" height="28" fill="white" transform="translate(0.255737)"/>
</clipPath>
</defs>
</svg>
